HIERARCHY
ROOT hip
{
  OFFSET 0 0 0
  CHANNELS 6 Xposition Yposition Zposition Zrotation Yrotation Xrotation
  JOINT abdomen
  {
    OFFSET 0 20.6881 -0.73152
    CHANNELS 3 Zrotation Xrotation Yrotation
    JOINT chest
    {
      OFFSET 0 11.7043 -0.48768
      CHANNELS 3 Zrotation Xrotation Yrotation
      JOINT neck
      {
        OFFSET 0 22.1894 -2.19456
        CHANNELS 3 Zrotation Xrotation Yrotation
        JOINT head
        {
          OFFSET -0.24384 7.07133 1.2192
          CHANNELS 3 Zrotation Xrotation Yrotation
          JOINT leftEye
          {
            OFFSET 4.14528 8.04674 8.04672
            CHANNELS 3 Zrotation Xrotation Yrotation
            End Site
            {
              OFFSET 1 0 0
            }
          }
          JOINT rightEye
          {
            OFFSET -3.6576 8.04674 8.04672
            CHANNELS 3 Zrotation Xrotation Yrotation
            End Site
            {
              OFFSET 1 0 0
            }
          }
        }
      }
      JOINT rCollar
      {
        OFFSET -2.68224 19.2634 -4.8768
        CHANNELS 3 Zrotation Xrotation Yrotation
        JOINT rShldr
        {
          OFFSET -8.77824 -1.95073 1.46304
          CHANNELS 3 Zrotation Xrotation Yrotation
          JOINT rForeArm
          {
            OFFSET -28.1742 -1.7115 0.48768
            CHANNELS 3 Zrotation Xrotation Yrotation
            JOINT rHand
            {
              OFFSET -22.5879 0.773209 7.07136
              CHANNELS 3 Zrotation Xrotation Yrotation
              JOINT rThumb1
              {
                OFFSET -1.2192 -0.487915 3.41376
                CHANNELS 3 Zrotation Xrotation Yrotation
                JOINT rThumb2
                {
                  OFFSET -3.37035 -0.52449 3.41376
                  CHANNELS 3 Zrotation Xrotation Yrotation
                  End Site
                  {
                    OFFSET -1.78271 -1.18214 1.43049
                  }
                }
              }
              JOINT rIndex1
              {
                OFFSET -7.75947 0.938293 5.60832
                CHANNELS 3 Zrotation Xrotation Yrotation
                JOINT rIndex2
                {
                  OFFSET -2.54057 -0.884171 1.56538
                  CHANNELS 3 Zrotation Xrotation Yrotation
                  End Site
                  {
                    OFFSET -1.62519 -0.234802 1.16502
                  }
                }
              }
              JOINT rMid1
              {
                OFFSET -8.24714 1.18213 3.41376
                CHANNELS 3 Zrotation Xrotation Yrotation
                JOINT rMid2
                {
                  OFFSET -3.10165 -0.590103 1.0647
                  CHANNELS 3 Zrotation Xrotation Yrotation
                  End Site
                  {
                    OFFSET -2.48547 -0.328903 0.83742
                  }
                }
              }
              JOINT rRing1
              {
                OFFSET -8.82822 0.546677 1.51678
                CHANNELS 3 Zrotation Xrotation Yrotation
                JOINT rRing2
                {
                  OFFSET -2.60934 -0.819778 -0.0198488
                  CHANNELS 3 Zrotation Xrotation Yrotation
                  End Site
                  {
                    OFFSET -2.33842 -0.294052 0.168128
                  }
                }
              }
              JOINT rPinky1
              {
                OFFSET -8.27202 -0.0477905 -0.4584
                CHANNELS 3 Zrotation Xrotation Yrotation
                JOINT rPinky2
                {
                  OFFSET -1.82734 -0.647385 -0.700984
                  CHANNELS 3 Zrotation Xrotation Yrotation
                  End Site
                  {
                    OFFSET -1.69225 -0.51767 -0.607171
                  }
                }
              }
            }
          }
        }
      }
      JOINT lCollar
      {
        OFFSET 2.68224 19.2634 -4.8768
        CHANNELS 3 Zrotation Xrotation Yrotation
        JOINT lShldr
        {
          OFFSET 8.77824 -1.95073 1.46304
          CHANNELS 3 Zrotation Xrotation Yrotation
          JOINT lForeArm
          {
            OFFSET 28.1742 -1.7115 0.48768
            CHANNELS 3 Zrotation Xrotation Yrotation
            JOINT lHand
            {
              OFFSET 22.5879 0.773209 7.07136
              CHANNELS 3 Zrotation Xrotation Yrotation
              JOINT lThumb1
              {
                OFFSET 1.2192 -0.487915 3.41376
                CHANNELS 3 Zrotation Xrotation Yrotation
                JOINT lThumb2
                {
                  OFFSET 3.37035 -0.52449 3.41376
                  CHANNELS 3 Zrotation Xrotation Yrotation
                  End Site
                  {
                    OFFSET 1.78271 -1.18214 1.43049
                  }
                }
              }
              JOINT lIndex1
              {
                OFFSET 7.75947 0.938293 5.60832
                CHANNELS 3 Zrotation Xrotation Yrotation
                JOINT lIndex2
                {
                  OFFSET 2.54057 -0.884171 1.56538
                  CHANNELS 3 Zrotation Xrotation Yrotation
                  End Site
                  {
                    OFFSET 1.62519 -0.234802 1.16502
                  }
                }
              }
              JOINT lMid1
              {
                OFFSET 8.24714 1.18213 3.41376
                CHANNELS 3 Zrotation Xrotation Yrotation
                JOINT lMid2
                {
                  OFFSET 3.10165 -0.590103 1.0647
                  CHANNELS 3 Zrotation Xrotation Yrotation
                  End Site
                  {
                    OFFSET 2.48547 -0.328903 0.83742
                  }
                }
              }
              JOINT lRing1
              {
                OFFSET 8.82822 0.546677 1.51678
                CHANNELS 3 Zrotation Xrotation Yrotation
                JOINT lRing2
                {
                  OFFSET 2.60934 -0.819778 -0.0198488
                  CHANNELS 3 Zrotation Xrotation Yrotation
                  End Site
                  {
                    OFFSET 2.33842 -0.294052 0.168128
                  }
                }
              }
              JOINT lPinky1
              {
                OFFSET 8.27202 -0.0477905 -0.4584
                CHANNELS 3 Zrotation Xrotation Yrotation
                JOINT lPinky2
                {
                  OFFSET 1.82734 -0.647385 -0.700984
                  CHANNELS 3 Zrotation Xrotation Yrotation
                  End Site
                  {
                    OFFSET 1.69225 -0.51767 -0.607171
                  }
                }
              }
            }
          }
        }
      }
    }
  }
  JOINT rButtock
  {
    OFFSET -8.77824 4.35084 1.2192
    CHANNELS 3 Zrotation Xrotation Yrotation
    JOINT rThigh
    {
      OFFSET 0 -1.70687 -2.19456
      CHANNELS 3 Zrotation Xrotation Yrotation
      JOINT rShin
      {
        OFFSET 0 -36.8199 0.73152
        CHANNELS 3 Zrotation Xrotation Yrotation
        JOINT rFoot
        {
          OFFSET 0.73152 -45.1104 -5.12064
          CHANNELS 3 Zrotation Xrotation Yrotation
          End Site
          {
            OFFSET -1.1221 -3.69964 12.103
          }
        }
      }
    }
  }
  JOINT lButtock
  {
    OFFSET 8.77824 4.35084 1.2192
    CHANNELS 3 Zrotation Xrotation Yrotation
    JOINT lThigh
    {
      OFFSET 0 -1.70687 -2.19456
      CHANNELS 3 Zrotation Xrotation Yrotation
      JOINT lShin
      {
        OFFSET 0 -36.8199 0.73152
        CHANNELS 3 Zrotation Xrotation Yrotation
        JOINT lFoot
        {
          OFFSET -0.73152 -45.1104 -5.12064
          CHANNELS 3 Zrotation Xrotation Yrotation
          End Site
          {
            OFFSET 1.1221 -3.69964 12.103
          }
        }
      }
    }
  }
}
MOTION
Frames:	4
Frame Time:	0.00833333
-38.9379 157.533 -49.2782 41.4936 87.1122 311.78 -2.85926 41.9103 3.39282 -2.36426 0.108667 1.6548 -1.38244 24.0611 -9.49225 1.55337 -7.38582 -16.9928 -0.0 0.0 0.0 -0.0 0.0 0.0 1.22532e-14 2.23016e-13 1.12546e-14 31.0593 6.0828 65.2501 -25.7789 -22.88 55.8679 -0.0858621 8.3298 1.17908 7.39814e-10 6.84332e-10 2.08054e-09 1.29428e-09 1.16794e-09 3.58557e-09 7.39814e-10 6.84329e-10 2.08053e-09 7.73091 5.47488 0.417314 7.39818e-10 6.84329e-10 2.08054e-09 2.90554 0.965183 0.102902 7.3982e-10 6.84326e-10 2.08054e-09 10.2786 0.731801 0.0259123 7.39809e-10 6.84328e-10 2.08054e-09 2.22167 -0.733487 -0.20892 1.20925e-14 2.23018e-13 1.11568e-14 -31.9435 -1.30624 -80.5411 9.22977 -3.68734 -16.3633 0.53154 20.2639 -2.97421 -4.95419e-09 2.49803e-10 -8.5475e-10 -8.5752e-09 4.20283e-10 -1.39509e-09 -4.95419e-09 2.49798e-10 -8.54745e-10 -7.73091 5.47488 -0.417314 -4.95419e-09 2.49799e-10 -8.54759e-10 -2.90554 0.965183 -0.102902 -4.95419e-09 2.498e-10 -8.54753e-10 -10.2786 0.731801 -0.0259123 -4.95418e-09 2.49806e-10 -8.54762e-10 -2.22167 -0.733487 0.20892 -2.03217e-16 0.0 -3.88251e-19 -3.01002 -11.8273 2.40517 -0.20599 26.1833 0.139273 1.09852 15.6891 -6.34193 2.03217e-16 0.0 3.88251e-19 12.5156 -26.7279 4.01743 0.100855 30.8618 -0.523505 -0.0978494 2.04915 -2.98556
-38.9258 157.651 -49.3512 44.2176 87.0023 314.545 -3.17245 41.8913 3.81101 -2.80835 0.114127 1.74952 -1.88888 22.7969 -9.5475 3.90452 -4.58438 -17.0021 -0.0 0.0 0.0 -0.0 0.0 0.0 2.55434e-14 1.10484e-12 5.66723e-14 31.83 5.9287 65.0316 -25.7862 -22.8981 55.8973 -0.0887781 8.46684 1.19877 3.67427e-10 -1.67675e-10 4.0788e-10 6.39669e-10 -2.96716e-10 6.97644e-10 3.67429e-10 -1.67678e-10 4.07864e-10 7.73091 5.47488 0.417314 3.67432e-10 -1.67679e-10 4.07881e-10 2.90554 0.965183 0.102902 3.6743e-10 -1.67681e-10 4.07878e-10 10.2786 0.731801 0.0259123 3.67423e-10 -1.67679e-10 4.0788e-10 2.22167 -0.733487 -0.20892 2.53969e-14 1.10484e-12 5.65604e-14 -32.499 -1.36092 -81.0342 8.98886 -3.55073 -15.9163 0.587786 21.2566 -3.13384 -1.87513e-09 -2.23252e-10 -1.02825e-09 -3.25672e-09 -3.92778e-10 -1.74762e-09 -1.87513e-09 -2.23256e-10 -1.02824e-09 -7.73091 5.47488 -0.417314 -1.87513e-09 -2.23254e-10 -1.02826e-09 -2.90554 0.965183 -0.102902 -1.87513e-09 -2.23253e-10 -1.02825e-09 -10.2786 0.731801 -0.0259123 -1.87512e-09 -2.23249e-10 -1.02825e-09 -2.22167 -0.733487 0.20892 -2.03217e-16 0.0 -3.88251e-19 -3.02167 -12.0262 2.46834 -0.201571 25.5531 0.123917 1.03956 14.7519 -6.61565 2.03217e-16 0.0 3.88251e-19 12.2807 -27.4377 3.53678 0.096277 30.5377 -0.508756 -0.0988263 1.28642 -1.65688
-38.9226 157.615 -49.145 36.1827 87.3028 306.627 -3.47752 41.8728 4.23166 -3.28646 0.11656 1.84566 -2.19193 21.6545 -9.61468 5.94734 -2.11747 -17.0582 -0.0 0.0 0.0 -0.0 0.0 0.0 3.71297e-14 2.06652e-12 1.03696e-13 32.622 5.77732 64.8186 -25.7931 -22.9149 55.9245 -0.0922406 8.62805 1.22195 -4.5048e-11 -9.69815e-10 -1.23235e-09 -8.41312e-11 -1.67501e-09 -2.13376e-09 -4.50449e-11 -9.69818e-10 -1.23237e-09 7.73091 5.47488 0.417314 -4.50436e-11 -9.69818e-10 -1.23235e-09 2.90554 0.965183 0.102902 -4.50467e-11 -9.69819e-10 -1.23235e-09 10.2786 0.731801 0.0259123 -4.50523e-11 -9.69818e-10 -1.23235e-09 2.22167 -0.733487 -0.20892 3.70007e-14 2.06652e-12 1.03564e-13 -32.9777 -1.3814 -81.526 8.76077 -3.42192 -15.4968 0.646499 22.2075 -3.28942 1.21983e-09 -6.81617e-10 -1.16233e-09 2.08993e-09 -1.18027e-09 -2.03206e-09 1.21983e-09 -6.8162e-10 -1.16233e-09 -7.73091 5.47488 -0.417314 1.21983e-09 -6.81618e-10 -1.16234e-09 -2.90554 0.965183 -0.102902 1.21983e-09 -6.81618e-10 -1.16233e-09 -10.2786 0.731801 -0.0259123 1.21984e-09 -6.81614e-10 -1.16233e-09 -2.22167 -0.733487 0.20892 -2.03217e-16 0.0 -3.88251e-19 -3.0346 -12.2199 2.52079 -0.197664 24.9487 0.109103 0.973548 13.8008 -6.91318 2.03217e-16 0.0 3.88251e-19 12.0331 -28.159 3.08131 0.092307 30.2418 -0.494536 -0.0638785 0.545989 -0.332283
-38.983 157.817 -49.3222 43.6675 87.0327 314.12 -3.68491 41.8513 4.51841 -3.62867 0.0883615 1.91046 -1.93443 21.1418 -9.72662 6.67594 -1.2391 -17.2128 -0.0 0.0 0.0 -0.0 0.0 0.0 4.61771e-14 2.55788e-12 1.26477e-13 33.2283 5.71655 64.6379 -25.8026 -22.9383 55.9622 -0.0963278 8.81804 1.24927 -3.03603e-10 -1.34842e-09 -2.10698e-09 -5.3676e-10 -2.32468e-09 -3.64293e-09 -3.03599e-10 -1.34842e-09 -2.107e-09 7.73091 5.47488 0.417314 -3.03599e-10 -1.34842e-09 -2.10698e-09 2.90554 0.965183 0.102902 -3.03602e-10 -1.34842e-09 -2.10698e-09 10.2786 0.731801 0.0259123 -3.03607e-10 -1.34842e-09 -2.10698e-09 2.22167 -0.733487 -0.20892 4.6062e-14 2.55789e-12 1.26328e-13 -32.8066 -1.3038 -81.805 8.68582 -3.38018 -15.359 0.660576 22.4455 -3.32831 2.96751e-09 -9.32392e-10 -1.14713e-09 5.11057e-09 -1.61088e-09 -2.03559e-09 2.96751e-09 -9.32393e-10 -1.14713e-09 -7.73091 5.47488 -0.417314 2.96751e-09 -9.32392e-10 -1.14713e-09 -2.90554 0.965183 -0.102902 2.9675e-09 -9.32392e-10 -1.14712e-09 -10.2786 0.731801 -0.0259123 2.96752e-09 -9.32389e-10 -1.14712e-09 -2.22167 -0.733487 0.20892 -2.03217e-16 0.0 -3.88251e-19 -3.03961 -12.4111 2.50381 -0.194279 24.4017 0.0964056 0.893927 12.9531 -7.08892 2.03217e-16 0.0 3.88251e-19 11.886 -28.9213 2.94287 0.0892373 29.9813 -0.480496 -0.0142544 -0.0518271 0.609905
